<svg width="24" height="24" viewBox="0 0 24 24" fill="none" xmlns="http://www.w3.org/2000/svg">
<path d="M23.6667 4.64998L18.3 0.0999756L16.7833 1.84998L22.15 6.39997L23.6667 4.64998ZM7.21667 1.96664L5.7 0.216642L0.333336 4.64998L1.85 6.39997L7.21667 1.96664ZM12.5833 7.33331H10.8333V14.3333L16.3167 17.7166L17.25 16.3166L12.5833 13.5166V7.33331ZM12 2.66664C6.16667 2.66664 1.5 7.33331 1.5 13.1666C1.5 19 6.16667 23.6666 12 23.6666C17.8333 23.6666 22.5 19 22.5 13.1666C22.5 7.33331 17.8333 2.66664 12 2.66664ZM12 21.3333C7.45 21.3333 3.83334 17.7166 3.83334 13.1666C3.83334 8.61664 7.45 4.99998 12 4.99998C16.55 4.99998 20.1667 8.61664 20.1667 13.1666C20.1667 17.7166 16.55 21.3333 12 21.3333Z" fill="black" fill-opacity="0.5"/>
</svg>
