<svg width="24" height="24" viewBox="0 0 24 24" fill="none" xmlns="http://www.w3.org/2000/svg">
<path d="M6.16666 21.3334V8.47089C6.16666 7.82922 6.4 7.28478 6.86666 6.83756C7.33333 6.39033 7.8875 6.16672 8.52916 6.16672H21.3333C21.975 6.16672 22.5243 6.3952 22.9812 6.85214C23.4382 7.30908 23.6667 7.85839 23.6667 8.50006V17.8334L17.8333 23.6667H8.5C7.85833 23.6667 7.30902 23.4383 6.85208 22.9813C6.39513 22.5244 6.16666 21.9751 6.16666 21.3334ZM0.362496 5.29172C0.245829 4.65006 0.372218 4.07158 0.741662 3.55631C1.11111 3.04103 1.61666 2.72506 2.25833 2.60839L14.9167 0.362557C15.5583 0.24589 16.1368 0.372279 16.6521 0.741723C17.1674 1.11117 17.4833 1.61672 17.6 2.25839L17.8917 3.83339H8.5C7.21666 3.83339 6.11805 4.29033 5.20416 5.20422C4.29027 6.11811 3.83333 7.21672 3.83333 8.50006V19.6417C3.52222 19.4667 3.25486 19.2334 3.03125 18.9417C2.80763 18.6501 2.66666 18.3195 2.60833 17.9501L0.362496 5.29172ZM21.3333 16.6667H17.8333C17.5028 16.6667 17.2257 16.7785 17.0021 17.0021C16.7785 17.2258 16.6667 17.5028 16.6667 17.8334V21.3334L21.3333 16.6667Z" fill="black" fill-opacity="0.5"/>
</svg>
