<svg width="12" height="12" viewBox="0 0 12 12" fill="none" xmlns="http://www.w3.org/2000/svg">
<path d="M10.6667 1.33333V10.6667H1.33333V1.33333H10.6667ZM10.6667 0H1.33333C0.593333 0 0 0.6 0 1.33333V10.6667C0 11.4 0.593333 12 1.33333 12H10.6667C11.4 12 12 11.4 12 10.6667V1.33333C12 0.6 11.4 0 10.6667 0ZM6 6C4.9 6 4 5.1 4 4C4 2.9 4.9 2 6 2C7.1 2 8 2.9 8 4C8 5.1 7.1 6 6 6ZM6 3.33333C5.63333 3.33333 5.33333 3.63333 5.33333 4C5.33333 4.36667 5.63333 4.66667 6 4.66667C6.36667 4.66667 6.66667 4.36667 6.66667 4C6.66667 3.63333 6.36667 3.33333 6 3.33333ZM10 10H2V8.98C2 7.31333 4.64667 6.59333 6 6.59333C7.35333 6.59333 10 7.31333 10 8.98V10ZM3.54 8.66667H8.46C8 8.29333 6.87333 7.92 6 7.92C5.12667 7.92 3.99333 8.29333 3.54 8.66667Z" fill="white"/>
</svg>
