<svg width="16" height="16" viewBox="0 0 16 16" fill="none" xmlns="http://www.w3.org/2000/svg">
<g clip-path="url(#clip0_2492_863)">
<path d="M8.00001 1.29999C4.32001 1.29999 1.33334 4.28665 1.33334 7.96665C1.33334 11.6467 4.32001 14.6333 8.00001 14.6333H11.3333V13.3H8.00001C5.10668 13.3 2.66668 10.86 2.66668 7.96665C2.66668 5.07332 5.10668 2.63332 8.00001 2.63332C10.8933 2.63332 13.3333 5.07332 13.3333 7.96665V8.91999C13.3333 9.44665 12.86 9.96665 12.3333 9.96665C11.8067 9.96665 11.3333 9.44665 11.3333 8.91999V7.96665C11.3333 6.12665 9.84001 4.63332 8.00001 4.63332C6.16001 4.63332 4.66668 6.12665 4.66668 7.96665C4.66668 9.80665 6.16001 11.3 8.00001 11.3C8.92001 11.3 9.76001 10.9267 10.36 10.32C10.7933 10.9133 11.54 11.3 12.3333 11.3C13.6467 11.3 14.6667 10.2333 14.6667 8.91999V7.96665C14.6667 4.28665 11.68 1.29999 8.00001 1.29999ZM8.00001 9.96665C6.89334 9.96665 6.00001 9.07332 6.00001 7.96665C6.00001 6.85999 6.89334 5.96665 8.00001 5.96665C9.10668 5.96665 10 6.85999 10 7.96665C10 9.07332 9.10668 9.96665 8.00001 9.96665Z" fill="white"/>
</g>
<defs>
<clipPath id="clip0_2492_863">
<rect width="16" height="16" fill="white"/>
</clipPath>
</defs>
</svg>
