<svg width="16" height="16" viewBox="0 0 16 16" fill="none" xmlns="http://www.w3.org/2000/svg">
<path d="M7.33332 4.66669L5.19999 10.6667H6.46666L6.93332 9.33335H9.06666L9.53332 10.6667H10.8L8.66666 4.66669H7.33332ZM7.23333 8.43335L7.99999 6.00002L8.76666 8.43335H7.23333ZM13.3333 5.79335V2.66669H10.2067L7.99999 0.460022L5.79332 2.66669H2.66666V5.79335L0.459991 8.00002L2.66666 10.2067V13.3334H5.79332L7.99999 15.54L10.2067 13.3334H13.3333V10.2067L15.54 8.00002L13.3333 5.79335ZM12 9.65335V12H9.65332L7.99999 13.6534L6.34666 12H3.99999V9.65335L2.34666 8.00002L3.99999 6.34669V4.00002H6.34666L7.99999 2.34669L9.65332 4.00002H12V6.34669L13.6533 8.00002L12 9.65335Z" fill="white"/>
</svg>
