<svg width="12" height="14" viewBox="0 0 12 14" fill="none" xmlns="http://www.w3.org/2000/svg">
<path d="M2.33333 0.333344C3.06667 0.333344 3.66667 0.933343 3.66667 1.66668C3.66667 2.40001 3.06667 3.00001 2.33333 3.00001C1.6 3.00001 1 2.40001 1 1.66668C1 0.933343 1.6 0.333344 2.33333 0.333344ZM8.33333 5.33334C8.33333 5.88668 8.78 6.33334 9.33333 6.33334C9.88667 6.33334 10.3333 5.88668 10.3333 5.33334C10.3333 4.78001 9.88667 4.33334 9.33333 4.33334C8.78 4.33334 8.33333 4.78001 8.33333 5.33334ZM10.3333 7.00001H8.44C8.05333 7.00668 7.68 7.21334 7.47333 7.57334L6.86 8.45334L4.48 4.33334C4.23333 3.91334 3.79333 3.67334 3.34 3.66668H1.33333C0.6 3.66668 0 4.26668 0 5.00001V9.00001H1V13.6667H4.33333V6.74001L6.02 9.66668H7.48667L8 8.93334V13.6667H10.6667V10.3333H11.3333V8.00001C11.3333 7.45334 10.8867 7.00001 10.3333 7.00001Z" fill="white"/>
</svg>
