<svg width="16" height="16" viewBox="0 0 16 16" fill="none" xmlns="http://www.w3.org/2000/svg">
<g clip-path="url(#clip0_2492_851)">
<path d="M12 5.33335H11.3333V4.00002C11.3333 2.16002 9.83999 0.666687 7.99999 0.666687C6.15999 0.666687 4.66666 2.16002 4.66666 4.00002V5.33335H3.99999C3.26666 5.33335 2.66666 5.93335 2.66666 6.66669V13.3334C2.66666 14.0667 3.26666 14.6667 3.99999 14.6667H12C12.7333 14.6667 13.3333 14.0667 13.3333 13.3334V6.66669C13.3333 5.93335 12.7333 5.33335 12 5.33335ZM5.99999 4.00002C5.99999 2.89335 6.89332 2.00002 7.99999 2.00002C9.10666 2.00002 9.99999 2.89335 9.99999 4.00002V5.33335H5.99999V4.00002ZM12 13.3334H3.99999V6.66669H12V13.3334ZM7.99999 11.3334C8.73332 11.3334 9.33332 10.7334 9.33332 10C9.33332 9.26669 8.73332 8.66669 7.99999 8.66669C7.26666 8.66669 6.66666 9.26669 6.66666 10C6.66666 10.7334 7.26666 11.3334 7.99999 11.3334Z" fill="white"/>
</g>
<defs>
<clipPath id="clip0_2492_851">
<rect width="16" height="16" fill="white"/>
</clipPath>
</defs>
</svg>
