<svg width="16" height="16" viewBox="0 0 16 16" fill="none" xmlns="http://www.w3.org/2000/svg">
<g clip-path="url(#clip0_2492_859)">
<path d="M11.3333 0.666687H4.66666C3.93333 0.666687 3.34 1.23335 3.34 1.96669V13.9667C3.34 14.7 3.93333 15.3334 4.66666 15.3334H11.3333C12.0667 15.3334 12.6667 14.7 12.6667 13.9667V1.96669C12.6667 1.23335 12.0667 0.666687 11.3333 0.666687ZM11.3333 12.6667H4.66666V3.33335H11.3333V12.6667ZM8.53333 8.82669V9.99335L10.6667 8.00002L8.53333 6.01335V7.14669C6.46 7.43335 5.63333 8.85335 5.33333 10.28C6.07333 9.28002 7.05333 8.82669 8.53333 8.82669Z" fill="white"/>
</g>
<defs>
<clipPath id="clip0_2492_859">
<rect width="16" height="16" fill="white"/>
</clipPath>
</defs>
</svg>
